<svg class="animated" id="freepik_stories-ride-a-bicycle" xmlns="http://www.w3.org/2000/svg" viewBox="0 0 500 500" version="1.1" xmlns:xlink="http://www.w3.org/1999/xlink" xmlns:svgjs="http://svgjs.com/svgjs"><style>svg#freepik_stories-ride-a-bicycle:not(.animated) .animable {opacity: 0;}svg#freepik_stories-ride-a-bicycle.animated #freepik--Clouds--inject-3 {animation: 1s 1 forwards cubic-bezier(.36,-0.01,.5,1.38) slideDown,1.5s Infinite  linear floating;animation-delay: 0s,1s;}svg#freepik_stories-ride-a-bicycle.animated #freepik--Plants--inject-3 {animation: 1s 1 forwards cubic-bezier(.36,-0.01,.5,1.38) lightSpeedRight,6s Infinite  linear wind;animation-delay: 0s,1s;}svg#freepik_stories-ride-a-bicycle.animated #freepik--Shadow--inject-3 {animation: 1s 1 forwards cubic-bezier(.36,-0.01,.5,1.38) slideLeft;animation-delay: 0s;}svg#freepik_stories-ride-a-bicycle.animated #freepik--Sun--inject-3 {animation: 1s 1 forwards cubic-bezier(.36,-0.01,.5,1.38) slideLeft,1.5s Infinite  linear spin;animation-delay: 0s,1s;}svg#freepik_stories-ride-a-bicycle.animated #freepik--Character--inject-3 {animation: 1s 1 forwards cubic-bezier(.36,-0.01,.5,1.38) slideLeft;animation-delay: 0s;}            @keyframes slideDown {                0% {                    opacity: 0;                    transform: translateY(-30px);                }                100% {                    opacity: 1;                    transform: translateY(0);                }            }                    @keyframes floating {                0% {                    opacity: 1;                    transform: translateY(0px);                }                50% {                    transform: translateY(-10px);                }                100% {                    opacity: 1;                    transform: translateY(0px);                }            }                    @keyframes lightSpeedRight {              from {                transform: translate3d(50%, 0, 0) skewX(-20deg);                opacity: 0;              }              60% {                transform: skewX(10deg);                opacity: 1;              }              80% {                transform: skewX(-2deg);              }              to {                opacity: 1;                transform: translate3d(0, 0, 0);              }            }                    @keyframes wind {                0% {                    transform: rotate( 0deg );                }                25% {                    transform: rotate( 1deg );                }                75% {                    transform: rotate( -1deg );                }            }                    @keyframes slideLeft {                0% {                    opacity: 0;                    transform: translateX(-30px);                }                100% {                    opacity: 1;                    transform: translateX(0);                }            }                 @keyframes spin {             from {                 transform: rotate(0);               }               to {                 transform: rotate(360deg);               }         }     .animator-hidden { display: none; }</style><g id="freepik--Floor--inject-3" class="animable animator-hidden" style="transform-origin: 250px 340.96px;"><ellipse id="freepik--floor--inject-3" cx="250" cy="340.96" rx="233.35" ry="134.72" style="fill: rgb(245, 245, 245); transform-origin: 250px 340.96px;" class="animable"></ellipse></g><g id="freepik--Clouds--inject-3" class="animable" style="transform-origin: 102.12px 69.222px;"><g id="freepik--clouds--inject-3" class="animable" style="transform-origin: 102.12px 69.222px;"><path d="M108.1,42.7l-9.54,5.51A10.93,10.93,0,0,0,98.64,47V44.18c0-4.91-3.45-6.91-7.71-4.45a15.17,15.17,0,0,0-4.6,4.42c-.69-6.18-5.54-8.49-11.44-5.08-6.37,3.67-11.53,12.62-11.53,20v4.13a10.94,10.94,0,0,0,1,4.79l-7.92,4.57A9.47,9.47,0,0,0,52.13,80c0,2.73,1.92,3.84,4.28,2.47L108.1,52.58a9.46,9.46,0,0,0,4.28-7.41C112.38,42.44,110.46,41.34,108.1,42.7Z" style="fill: rgb(235, 235, 235); transform-origin: 82.255px 60.2748px;" id="el5gu0f8t5ldv" class="animable"></path><path d="M148.92,70.49l-7.2,4.16c0-.32.06-.64.06-1V71.61c0-3.71-2.61-5.21-5.82-3.36a11.21,11.21,0,0,0-3.47,3.34c-.52-4.67-4.19-6.41-8.63-3.84-4.81,2.78-8.71,9.53-8.71,15.08V86a8.19,8.19,0,0,0,.74,3.61l-6,3.46a7.13,7.13,0,0,0-3.23,5.59c0,2,1.45,2.89,3.23,1.86l39-22.52a7.13,7.13,0,0,0,3.22-5.59C152.14,70.3,150.7,69.46,148.92,70.49Z" style="fill: rgb(235, 235, 235); transform-origin: 129.385px 83.7564px;" id="ele9s1qsv2y05" class="animable"></path></g></g><g id="freepik--Plants--inject-3" class="animable" style="transform-origin: 248.392px 261.225px;"><g id="freepik--plants--inject-3" class="animable" style="transform-origin: 45.9495px 267.071px;"><path d="M58.28,298.5l8-4.64S71.1,274,69.19,256.12C66.51,231,50,221.53,43.68,223.7s-8.11,9.48,2.3,24.45C52.12,257,59.66,275.37,58.28,298.5Z" style="fill: #2059BD; transform-origin: 54.0962px 260.95px;" id="el2czxwqxgn7d" class="animable"></path><g id="elhhgf3nmrbxu"><g style="opacity: 0.15; transform-origin: 54.0962px 260.95px;" class="animable" id="elpb3v7h5ytg"><path d="M58.28,298.5l8-4.64S71.1,274,69.19,256.12C66.51,231,50,221.53,43.68,223.7s-8.11,9.48,2.3,24.45C52.12,257,59.66,275.37,58.28,298.5Z" id="elzt8f82guyy" class="animable" style="transform-origin: 54.0962px 260.95px;"></path></g></g><path d="M61.61,288.74h-.07a.56.56,0,0,1-.45-.65C65.5,264.9,57.4,238.85,47.37,228a.56.56,0,0,1,.82-.75c10.21,11,18.47,37.51,14,61A.56.56,0,0,1,61.61,288.74Z" style="fill: rgb(255, 255, 255); transform-origin: 55.3502px 257.929px;" id="elkkvqs43gf6" class="animable"></path><path d="M37.24,310.65c-1.27.64-4.64-2.24-5.58-2.95A11.78,11.78,0,0,1,28,303a11,11,0,0,1-.64-6.67,26.15,26.15,0,0,1,1-3.48c.39-1.12.77-2.25,1.16-3.37a8.65,8.65,0,0,0,.67-3.42c-.18-2.36-2.17-4.1-4-5.61-2-1.66-4.08-3.84-3.92-6.65A9.9,9.9,0,0,1,25,268c1.43-1.64,3.1-3.06,4.41-4.8a7,7,0,0,0,1.64-4.3,7.2,7.2,0,0,0-.82-2.78c-.9-1.89-2.13-3.63-2.71-5.63s-.37-4.45,1.24-5.78c1.32-1.1,3.2-1.16,4.9-1a11.17,11.17,0,0,1,4.43,1.82c4.34,2.71,6.63,8.13,11.27,10.28a47.45,47.45,0,0,0,5.67,1.69c1.88.6,3.78,1.68,4.57,3.48,1.57,3.57-1.88,7.69-.84,11.44.92,3.32,4,4.73,5.66,7.77a7,7,0,0,1,.62,4.32,20.55,20.55,0,0,1-2.17,7.13,64.19,64.19,0,0,1-4.29,6.6S37.44,310.55,37.24,310.65Z" style="fill: #2059BD; transform-origin: 43.7038px 277.193px;" id="elatgd3o0rbst" class="animable"></path><path d="M49.54,304.24h0a.56.56,0,0,1-.51-.61c2-22-7.14-47-14.36-54.43a.55.55,0,0,1,0-.78.54.54,0,0,1,.78,0c7.36,7.62,16.73,32.95,14.67,55.3A.56.56,0,0,1,49.54,304.24Z" style="fill: rgb(255, 255, 255); transform-origin: 42.4585px 276.247px;" id="ell0mjfvly92q" class="animable"></path><path d="M47.35,277.06l-.16,0a75.06,75.06,0,0,0-15.91-3.39.56.56,0,0,1-.5-.61.54.54,0,0,1,.6-.5A75.88,75.88,0,0,1,47.57,276a.54.54,0,0,1,.33.71A.56.56,0,0,1,47.35,277.06Z" style="fill: rgb(255, 255, 255); transform-origin: 39.3576px 274.809px;" id="elps026876ez" class="animable"></path></g><g id="freepik--plants--inject-3" class="animable" style="transform-origin: 448.066px 258.554px;"><path d="M433.07,301.77,423,296s-2.47-21.56-.83-38.25c2.31-23.46,17.46-51.69,35.53-45.06s-8.29,30.52-14.15,50.42S433.07,301.77,433.07,301.77Z" style="fill: #2059BD; transform-origin: 442.772px 256.739px;" id="elzhgf9n2xzl" class="animable"></path><g id="el2cwodtd4kr3"><path d="M433.07,301.77,423,296s-2.47-21.56-.83-38.25c2.31-23.46,17.46-51.69,35.53-45.06s-8.29,30.52-14.15,50.42S433.07,301.77,433.07,301.77Z" style="opacity: 0.15; transform-origin: 442.772px 256.739px;" class="animable" id="elr6dq4k4mg7f"></path></g><path d="M427.78,299.33h0a.62.62,0,0,0,.59-.64c-1.77-52.12,24.18-78.35,24.44-78.6a.63.63,0,0,0,0-.87.6.6,0,0,0-.86,0c-.27.26-26.6,26.86-24.81,79.52A.61.61,0,0,0,427.78,299.33Z" style="fill: rgb(255, 255, 255); transform-origin: 440.019px 259.185px;" id="eleb03au3mdvo" class="animable"></path><path d="M439.4,305.4l-7.16-4.14s-1.22-14.79,6-32.76c6.32-15.65,22-28.63,29.86-25.9s7.69,8.31,3.85,14.18S444.76,276.61,439.4,305.4Z" style="fill: #2059BD; transform-origin: 453.343px 273.818px;" id="el4951j6qu7o1" class="animable"></path><path d="M435.62,303.82h0a.6.6,0,0,0,.6-.61c-.14-33,30.81-55.23,31.12-55.46a.61.61,0,1,0-.7-1c-.32.22-31.78,22.87-31.64,56.46A.62.62,0,0,0,435.62,303.82Z" style="fill: rgb(255, 255, 255); transform-origin: 451.301px 275.229px;" id="el199snysq83b" class="animable"></path></g></g><g id="freepik--Shadow--inject-3" class="animable" style="transform-origin: 249.519px 361.262px;"><g id="freepik--shadow--inject-3" class="animable" style="transform-origin: 249.519px 361.262px;"><path d="M342.09,428.09c-79-35.88-147.88-75.76-207.77-120-6.18-5.13-4.56-10.23,1-13.41s14.74-3,20.61.38L364.07,415.29c5.87,3.39,6.17,8.72.66,11.9S350.5,431.38,342.09,428.09Z" style="fill: rgb(224, 224, 224); transform-origin: 249.519px 361.262px;" id="eljofauiolxqc" class="animable"></path><ellipse id="freepik--shadow--inject-3" cx="236.66" cy="360.69" rx="51.38" ry="29.67" style="fill: rgb(224, 224, 224); transform-origin: 236.66px 360.69px;" class="animable"></ellipse></g></g><g id="freepik--Sun--inject-3" class="animable" style="transform-origin: 406.68px 60.09px;"><circle id="freepik--sun--inject-3" cx="406.68" cy="60.09" r="25.41" style="fill: rgb(240, 153, 122); transform-origin: 406.68px 60.09px;" class="animable"></circle></g><g id="freepik--Character--inject-3" class="animable" style="transform-origin: 250.05px 246.204px;"><g id="freepik--character--inject-3" class="animable" style="transform-origin: 250.05px 246.204px;"><path d="M253.6,305l-9.81-5.66a1.76,1.76,0,0,0-1.75,0l-13.66,7.89a1.76,1.76,0,0,0-.88,1.52v.88a1.78,1.78,0,0,0,.88,1.52l9.82,5.67a1.78,1.78,0,0,0,1.76,0L253.6,309a1.75,1.75,0,0,0,.87-1.52v-.88A1.77,1.77,0,0,0,253.6,305Z" style="fill: #2059BD; transform-origin: 240.986px 308.08px;" id="elszo784h33d" class="animable"></path><g id="elqk2z4lm9wnj"><path d="M253.6,305l-9.81-5.66a1.76,1.76,0,0,0-1.75,0l-13.66,7.89a1.76,1.76,0,0,0-.88,1.52v.88a1.78,1.78,0,0,0,.88,1.52l9.82,5.67a1.78,1.78,0,0,0,1.76,0L253.6,309a1.75,1.75,0,0,0,.87-1.52v-.88A1.77,1.77,0,0,0,253.6,305Z" style="opacity: 0.2; transform-origin: 240.986px 308.08px;" class="animable" id="el1f3vlleckhd"></path></g><path d="M238.26,314a1.65,1.65,0,0,0,1.64,0l14.34-8.31a1.78,1.78,0,0,0-.64-.64l-2.74-1.58-7.07-4.08a1.76,1.76,0,0,0-1.75,0l-1.66,1-12,6.93a1.71,1.71,0,0,0-.64.64Z" style="fill: #2059BD; transform-origin: 240.99px 306.688px;" id="elznfqcjibdm" class="animable"></path><polygon points="234.37 291.28 243.78 296.12 255.77 279.02 241.82 271.4 234.37 291.28" style="fill: rgb(255, 168, 167); transform-origin: 245.07px 283.76px;" id="elbfhnhzmdr1d" class="animable"></polygon><path d="M260.51,319.68a4.06,4.06,0,0,1-1.44,2.65c-.75.62-6,1-11.47-2a25.9,25.9,0,0,1-9.7-9.55c-1.48-2.43-3.58-3.75-6.29-5.23s-5.71-4.58-5.7-6.17,1.76-3.5,1.76-3.5Z" style="fill: rgb(55, 71, 79); transform-origin: 243.21px 309.32px;" id="eleucsu4jhqoh" class="animable"></path><path d="M246.12,291.43l.49.12a1.8,1.8,0,0,1,.76.31,1.56,1.56,0,0,1,.47.79,15.87,15.87,0,0,1,.37,2.93c.27,2.48,2,5.24,4,8,1.37,1.85,2.8,3.47,4.3,5.21s3.83,3.53,4.87,5.26c1.5,2.53,0,6.4-3.19,6.69-2.77.25-9.12-1.07-14.3-5.59-2.82-2.46-4.8-7.65-8.91-10-2.62-1.5-7.41-4.69-8.18-7.58-.22-1.23,2-3.72,3.91-5.89,2.07-2.37,4.82-6.29,5.61-5.63a1.41,1.41,0,0,0,0,1.25,15.86,15.86,0,0,0,.73,1.42,8,8,0,0,1,.48,2.88,1.83,1.83,0,0,0,.38,1.2c.38.39.86.26,1.35.27a2.56,2.56,0,0,1,1.68.65,11.77,11.77,0,0,0,.47-1.74.73.73,0,0,1,.74-.77A9.6,9.6,0,0,1,246.12,291.43Z" style="fill: rgb(69, 90, 100); transform-origin: 244.375px 303.373px;" id="el1trjkkojsp6" class="animable"></path><path d="M250.38,300.87a2.79,2.79,0,0,0-1.38-2.29c-1.13-.82-3.74-.94-5.63-.46a1.12,1.12,0,0,0-.65,1.74h0a1.12,1.12,0,0,0,1.22.42A8.61,8.61,0,0,1,250.38,300.87Z" style="fill: rgb(245, 245, 245); transform-origin: 246.446px 299.354px;" id="elvrvhjcp0y3a" class="animable"></path><path d="M253.2,304.83a3.21,3.21,0,0,0-1.8-2.35s-3.28-1.44-6.16-.52a1.11,1.11,0,0,0-.63,1.69h0a1.08,1.08,0,0,0,1.18.4A8.59,8.59,0,0,1,253.2,304.83Z" style="fill: rgb(245, 245, 245); transform-origin: 248.811px 303.241px;" id="elaucrpu2gxbt" class="animable"></path><path d="M256.52,308.76a3.6,3.6,0,0,0-1.95-2.27,9.64,9.64,0,0,0-5.95-.39,1.1,1.1,0,0,0-.63,1.68h0a1.06,1.06,0,0,0,1.18.4A8.24,8.24,0,0,1,256.52,308.76Z" style="fill: rgb(245, 245, 245); transform-origin: 252.16px 307.281px;" id="elmykug2fb15" class="animable"></path><path d="M263,197.31s16.05,27.32,20.94,37.36c4.32,8.86,5.71,13.22-6.19,25.27s-26.91,27-26.91,27-7.64.26-9.85-6.67c3.85-10.3,10.93-28.92,20.93-33.37l-19.23-24.84Z" style="fill: rgb(38, 50, 56); transform-origin: 264.028px 242.126px;" id="elbvodhr51557" class="animable"></path><path d="M323.51,362.91a1.41,1.41,0,0,1-1.3-.86L313.5,342a1.18,1.18,0,0,1-.07-.2l-16-60.07a1.42,1.42,0,0,1,2.75-.73l16,60,8.66,20a1.42,1.42,0,0,1-.74,1.87A1.46,1.46,0,0,1,323.51,362.91Z" style="fill: #2059BD; transform-origin: 311.171px 321.435px;" id="elpmev61pudsq" class="animable"></path><g id="eldvjkapl50ft"><path d="M323.51,362.91a1.41,1.41,0,0,1-1.3-.86L313.5,342a1.18,1.18,0,0,1-.07-.2l-16-60.07a1.42,1.42,0,0,1,2.75-.73l16,60,8.66,20a1.42,1.42,0,0,1-.74,1.87A1.46,1.46,0,0,1,323.51,362.91Z" style="opacity: 0.5; transform-origin: 311.171px 321.435px;" class="animable" id="elm5axpiq4zv"></path></g><path d="M330.29,310l-2.62-1.52c-6.44-3.72-12.54-5.51-18-5.59h0l-.48,0a23.58,23.58,0,0,0-2.81.16,30.73,30.73,0,0,0-21,11.74c-.1.11-.2.23-.29.35s-.35.44-.51.67l-.32.45c-.14.19-.26.38-.39.57-.23.37-.47.74-.69,1.13l-.24.42q-.15.27-.3.57l0,.06a30.71,30.71,0,0,0-3.71,14.69v1.22c0,.56,0,1.14,0,1.72v3c0,26.21,18.39,58.06,41.08,71.15l2.62,1.52c6.44,3.72,12.53,5.51,18,5.59h.37c.36,0,.72,0,1.07,0h.34c.3,0,.61,0,.91-.08l.45-.05a2.13,2.13,0,0,0,.25,0,30.8,30.8,0,0,0,21.5-12.46c.21-.29.42-.59.62-.89l.08-.1c.23-.35.46-.71.68-1.08a30.64,30.64,0,0,0,4.55-16.1v-6C371.37,354.93,353,323.07,330.29,310Zm-9,92.68c-19.15-11.06-34.68-38-34.68-60.07s15.53-31.08,34.68-20S356,360.52,356,382.64,340.43,413.72,321.28,402.66Z" style="fill: rgb(69, 90, 100); transform-origin: 325.19px 360.395px;" id="elrk8esli21v" class="animable"></path><path d="M322.59,314.43,320,312.91c-11.22-6.48-21.39-7.15-28.81-3-.19.11-.38.22-.57.35l-.14.08-.67.43c-.21.14-.43.29-.64.45a13.12,13.12,0,0,0-1.24,1l-.59.53a13.75,13.75,0,0,0-1.14,1.15c-.19.2-.37.41-.54.62s-.35.41-.52.63-.35.44-.51.67l-.32.45c-.14.19-.26.38-.39.57-.23.37-.47.74-.69,1.13l-.24.42q-.15.27-.3.57l-.28.57a21.05,21.05,0,0,0-.95,2.16c-.16.4-.32.79-.45,1.2,0,0,0,0,0,.05-.25.74-.48,1.51-.69,2.3-.11.42-.22.85-.32,1.3s-.22,1-.32,1.51c0,.24-.08.49-.12.73-.08.42-.13.85-.19,1.27s-.12,1-.17,1.45l0,.23c0,.42-.07.84-.1,1.27l0,.51c0,.46-.06.94-.07,1.42s0,1.14,0,1.72v3c0,26.21,18.39,58.06,41.08,71.15l2.62,1.52c6.59,3.8,12.81,5.61,18.33,5.61.36,0,.72,0,1.07,0h.34c.3,0,.61,0,.91-.08l.45-.05a9.05,9.05,0,0,0,.91-.12c.27,0,.54-.08.79-.14l.77-.16c.49-.12,1-.25,1.44-.4l.6-.19c.23-.08.45-.15.66-.24s.37-.14.55-.23c.39-.16.78-.33,1.16-.53.19-.08.38-.19.57-.29l.15-.09a.94.94,0,0,0,.22-.12l.36-.2c7.3-4.35,11.79-13.49,11.79-26.45v-3C363.66,359.38,345.27,327.52,322.59,314.43Zm-1.31,88.23c-19.15-11.06-34.68-38-34.68-60.07s15.53-31.08,34.68-20S356,360.52,356,382.64,340.43,413.72,321.28,402.66Z" style="fill: rgb(55, 71, 79); transform-origin: 321.413px 362.617px;" id="elhrry5j44icr" class="animable"></path><path d="M347.07,397c-5.48,6.53-15,7.46-25.79,1.22-17-9.83-30.83-33.73-30.83-53.4,0-8.78,2.76-15.23,7.33-18.81-3.19,3.77-5,9.39-5,16.59,0,19.66,13.81,43.57,30.83,53.4C333,401.43,341.42,401.42,347.07,397Z" style="fill: #2059BD; transform-origin: 318.76px 364.221px;" id="eloept9aks61n" class="animable"></path><g id="elsgqji9t3cj"><path d="M347.07,397c-5.48,6.53-15,7.46-25.79,1.22-17-9.83-30.83-33.73-30.83-53.4,0-8.78,2.76-15.23,7.33-18.81-3.19,3.77-5,9.39-5,16.59,0,19.66,13.81,43.57,30.83,53.4C333,401.43,341.42,401.42,347.07,397Z" style="opacity: 0.2; transform-origin: 318.76px 364.221px;" class="animable" id="el8lv5knyzwe"></path></g><path d="M321.28,322.57c-19.16-11.06-34.68-2.09-34.68,20s15.52,49,34.68,60.07,34.68,2.1,34.68-20S340.43,333.63,321.28,322.57Zm0,75.64c-17-9.83-30.83-33.73-30.83-53.39s13.8-27.63,30.83-17.8,30.82,33.73,30.82,53.39S338.3,408,321.28,398.21Z" style="fill: #2059BD; transform-origin: 321.28px 362.608px;" id="elpb1t2nfaqg" class="animable"></path><path d="M351.06,370.63c-.07-.34-.14-.69-.22-1L324,362.39l24-2.14-.36-.92-24.25,2.17,19.74-11.4c-.15-.27-.32-.54-.48-.82l-19.73,11.4,13.93-19.82-.62-.77L322.43,359.7l7.12-26.59c-.26-.24-.52-.48-.79-.71l-7,26.15V327.31l-.47-.29-.48-.26v30.71l-6.89-33.67-1-.28,6.79,33.22-13.15-33.9c-.33,0-.66.05-1,.08l13.07,33.66L300.1,324.53c-.28.15-.56.3-.83.46l18.51,32.07-22.73-28.29c-.2.26-.39.53-.58.8l22.91,28.5-25.63-22.73c-.1.33-.2.67-.29,1l26,23.06-27-15.58c0,.33,0,.65,0,1v.09l27.47,15.86-26.61-7.13c.06.34.13.69.2,1l27.06,7.25-24.33,2.18c.11.31.23.61.35.92l24.59-2.2-20.12,11.62.46.83,20.13-11.63-14.26,20.3.61.77,14.13-20.09L312.8,392l.8.71,7.2-26.9v32.16l.48.29.47.26V366.85l7.09,34.64,1,.27-7-34.19,13.5,34.79c.33,0,.66-.05,1-.09L324,367.73l18.91,32.75c.27-.15.54-.31.81-.49l-18.9-32.73L347.86,396c.19-.26.38-.53.56-.81l-23.25-28.92L351,389.16c.1-.34.18-.68.26-1L325.1,364.91l27,15.59v-.09c0-.33,0-.67,0-1l-27.44-15.85Z" style="fill: rgb(235, 235, 235); transform-origin: 321.28px 362.6px;" id="elk92ga5kq7kd" class="animable"></path><path d="M323.06,348.26c-3.28-1.9-6.23-2-8.34-.69-.43.27-1,.51-1.52.84-.16.09-.3.19-.45.29l-.08.05,0,0a6.47,6.47,0,0,0-.57.47l-.12.12c-.16.16-.31.33-.46.51l-.15.2a4.93,4.93,0,0,0-.36.53l-.17.31c-.09.18-.18.35-.26.54a3.2,3.2,0,0,0-.17.43c-.07.17-.13.34-.19.53s-.1.37-.15.57-.08.32-.11.5-.08.5-.11.75l-.06.43c0,.41-.06.84-.06,1.28,0,7.37,5.18,16.34,11.57,20,.4.23.79.43,1.18.61.23.11.46.19.69.28s.31.13.47.18a4.61,4.61,0,0,0,.46.13,6.59,6.59,0,0,0,.66.18l.26,0a8.3,8.3,0,0,0,.83.12h.05a6.08,6.08,0,0,0,3.77-.89c.56-.33,1.06-.57,1.69-.95,2-1.22,3.29-3.78,3.29-7.4C334.63,360.91,329.45,352,323.06,348.26Zm-3.3,22.21c-2-1.54-4.76-6.22-5.85-8.83a22,22,0,0,0,2,1.24c3,1.55,2.93-.55,4.15.91s1,5,0,6.9A1.4,1.4,0,0,1,319.76,370.47Zm5.86-13.69a2.78,2.78,0,0,0-.49.22c-.32.18-1.63.92-1.77,1a2.21,2.21,0,0,0-.89.88c-1.49-1.52-3.22-6.36-3.08-8.64,2.59.89,6.9,4.48,7.56,5.87a1.5,1.5,0,0,1,.12.33A7.34,7.34,0,0,0,325.62,356.78Zm-8.77-1.53c1,3.49,2.43,4,2.53,5.17-2.28-.37-6-2.58-6.22-4.77a8.75,8.75,0,0,1,2-5.87C316.12,350.21,316.06,352.39,316.85,355.25Zm6.53,18.33c-1.2-1.1.14-2.18.75-4.45a6,6,0,0,0,0-3.31c2.37,1.86,5.92,6.77,5,8.22l-.11.15C327,374.71,324.23,374.36,323.38,373.58ZM329,366c-2.52-3.36-3.51-2.2-4.12-4a2.31,2.31,0,0,1,.82-2.41,3,3,0,0,1,3.64,1.23c1.23,2.18,1.91,6.15,2,8.62C330.74,368.52,330,367.25,329,366Z" style="fill: rgb(224, 224, 224); transform-origin: 322.19px 362.069px;" id="el27hfthq6stb" class="animable"></path><g id="elttqfkeqgbva"><path d="M323.06,348.26c-3.28-1.9-6.23-2-8.34-.69-.43.27-1,.51-1.52.84-.16.09-.3.19-.45.29l-.08.05,0,0a6.47,6.47,0,0,0-.57.47l-.12.12c-.16.16-.31.33-.46.51l-.15.2a4.93,4.93,0,0,0-.36.53l-.17.31c-.09.18-.18.35-.26.54a3.2,3.2,0,0,0-.17.43c-.07.17-.13.34-.19.53s-.1.37-.15.57-.08.32-.11.5-.08.5-.11.75l-.06.43c0,.41-.06.84-.06,1.28,0,7.37,5.18,16.34,11.57,20,.4.23.79.43,1.18.61.23.11.46.19.69.28s.31.13.47.18a4.61,4.61,0,0,0,.46.13,6.59,6.59,0,0,0,.66.18l.26,0a8.3,8.3,0,0,0,.83.12h.05a6.08,6.08,0,0,0,3.77-.89c.56-.33,1.06-.57,1.69-.95,2-1.22,3.29-3.78,3.29-7.4C334.63,360.91,329.45,352,323.06,348.26Zm-3.3,22.21c-2-1.54-4.76-6.22-5.85-8.83a22,22,0,0,0,2,1.24c3,1.55,2.93-.55,4.15.91s1,5,0,6.9A1.4,1.4,0,0,1,319.76,370.47Zm5.86-13.69a2.78,2.78,0,0,0-.49.22c-.32.18-1.63.92-1.77,1a2.21,2.21,0,0,0-.89.88c-1.49-1.52-3.22-6.36-3.08-8.64,2.59.89,6.9,4.48,7.56,5.87a1.5,1.5,0,0,1,.12.33A7.34,7.34,0,0,0,325.62,356.78Zm-8.77-1.53c1,3.49,2.43,4,2.53,5.17-2.28-.37-6-2.58-6.22-4.77a8.75,8.75,0,0,1,2-5.87C316.12,350.21,316.06,352.39,316.85,355.25Zm6.53,18.33c-1.2-1.1.14-2.18.75-4.45a6,6,0,0,0,0-3.31c2.37,1.86,5.92,6.77,5,8.22l-.11.15C327,374.71,324.23,374.36,323.38,373.58ZM329,366c-2.52-3.36-3.51-2.2-4.12-4a2.31,2.31,0,0,1,.82-2.41,3,3,0,0,1,3.64,1.23c1.23,2.18,1.91,6.15,2,8.62C330.74,368.52,330,367.25,329,366Z" style="opacity: 0.2; transform-origin: 322.19px 362.069px;" class="animable" id="elv9zzes7jxdq"></path></g><path d="M321.28,349.26c-6.39-3.68-11.57-.69-11.57,6.68s5.18,16.34,11.57,20,11.55.69,11.55-6.68S327.66,353,321.28,349.26Zm-2.87.79c2.29,0,7.78,4.49,8.54,6.07s-1.25,1-3.09,1.66c-2.34.83-1.23,3.09-2.61,2.53C319.24,359.47,316.14,350,318.41,350.05ZM315,349.7c1.18.2,1,2.5,1.88,5.55,1.07,3.86,2.75,4.11,2.51,5.55-.35,2.11-7.62-1-8-4.16S313.79,349.49,315,349.7Zm3,21.77c-2.5-1.94-6.29-8.91-6.32-10.37s1.9.55,4.26,1.78c3,1.55,2.93-.55,4.15.91C321.89,365.92,320.49,373.42,318,371.47ZM329.1,374c-1.19,1.9-6.28,1.64-7.49.54s.14-2.17.76-4.46c.78-2.89-.94-4.45.06-5C323.88,364.35,330.3,372.14,329.1,374ZM327.26,367c-2.51-3.34-3.51-2.2-4.11-4-.9-2.62,4.46-5.3,6.22-2.18s2.4,9.93,1.69,10.71S329.25,369.61,327.26,367Z" style="fill: rgb(224, 224, 224); transform-origin: 321.27px 362.596px;" id="elyv1nyyvgl0i" class="animable"></path><path d="M321.28,366.7c2,1.13,3.53.21,3.53-2a7.82,7.82,0,0,0-3.53-6.13c-2-1.13-3.54-.21-3.54,2A7.81,7.81,0,0,0,321.28,366.7Z" style="fill: rgb(69, 90, 100); transform-origin: 321.275px 362.635px;" id="els8655dhidt" class="animable"></path><path d="M180,223.23l-2.62-1.52c-6.44-3.72-12.53-5.51-18-5.59h0l-.48,0a23.29,23.29,0,0,0-2.8.16,30.72,30.72,0,0,0-21,11.73l-.29.36c-.18.22-.35.44-.51.67l-.32.45c-.14.19-.26.38-.39.57-.23.37-.47.74-.69,1.13l-.24.42-.3.57,0,.06a30.68,30.68,0,0,0-3.71,14.69v1.22c0,.56,0,1.14,0,1.72v3c0,26.2,18.39,58.06,41.08,71.15l2.62,1.52c6.44,3.72,12.53,5.51,18,5.59h.38l1.06,0h.34c.3,0,.61,0,.91-.08l.45-.05a1.9,1.9,0,0,0,.25,0,30.8,30.8,0,0,0,21.5-12.46l.63-.89.07-.11c.23-.34.46-.7.69-1.07a30.72,30.72,0,0,0,4.54-16.1v-6C221.11,268.18,202.72,236.32,180,223.23Zm-9,92.68c-19.15-11.06-34.68-38-34.68-60.07s15.53-31.08,34.68-20,34.68,37.95,34.68,60.07S190.17,327,171,315.91Z" style="fill: rgb(69, 90, 100); transform-origin: 174.91px 273.625px;" id="elp2ywlu18o3a" class="animable"></path><path d="M172.33,227.68l-2.62-1.52c-11.22-6.48-21.39-7.15-28.81-3-.19.11-.38.22-.57.35l-.14.08-.67.43c-.21.14-.43.29-.64.45a14.53,14.53,0,0,0-1.24,1l-.59.53a13.75,13.75,0,0,0-1.14,1.15c-.19.2-.37.41-.54.62s-.35.41-.52.63-.35.44-.51.67l-.32.45c-.14.19-.26.38-.39.57-.23.37-.47.74-.69,1.13l-.24.42-.3.57-.28.56a22.24,22.24,0,0,0-1,2.17c-.16.4-.32.79-.45,1.2,0,0,0,0,0,0-.25.74-.48,1.51-.69,2.29-.11.43-.22.86-.32,1.3s-.22,1-.32,1.52c0,.24-.08.49-.12.73-.08.42-.13.85-.19,1.27s-.12.95-.17,1.45l0,.23c0,.42-.07.84-.1,1.26l0,.52c0,.46-.06.94-.07,1.42s0,1.14,0,1.72v3c0,26.2,18.39,58.06,41.08,71.15l2.62,1.52c6.59,3.8,12.81,5.6,18.34,5.6l1.06,0h.34c.3,0,.61,0,.91-.08l.45-.05c.31,0,.61-.07.91-.12l.79-.14.77-.16c.49-.12,1-.25,1.44-.4l.6-.19c.23-.08.45-.15.66-.24a5.31,5.31,0,0,0,.55-.23c.39-.16.78-.33,1.16-.53.19-.08.38-.19.57-.29l.15-.09a.94.94,0,0,0,.22-.12l.36-.2c7.3-4.35,11.79-13.49,11.79-26.45v-3C213.4,272.62,195,240.77,172.33,227.68ZM171,315.91c-19.15-11.06-34.68-38-34.68-60.07s15.53-31.08,34.68-20,34.68,37.95,34.68,60.07S190.17,327,171,315.91Z" style="fill: rgb(55, 71, 79); transform-origin: 171.073px 275.837px;" id="elefdz0yj4zn" class="animable"></path><path d="M196.81,310.24c-5.48,6.52-15,7.45-25.79,1.22-17-9.83-30.83-33.73-30.83-53.4,0-8.78,2.76-15.23,7.33-18.81-3.19,3.77-5,9.39-5,16.59,0,19.66,13.81,43.56,30.83,53.4C182.72,314.68,191.16,314.67,196.81,310.24Z" style="fill: #2059BD; transform-origin: 168.5px 277.458px;" id="elynewlvfwts" class="animable"></path><g id="elw3kat81pu8"><path d="M196.81,310.24c-5.48,6.52-15,7.45-25.79,1.22-17-9.83-30.83-33.73-30.83-53.4,0-8.78,2.76-15.23,7.33-18.81-3.19,3.77-5,9.39-5,16.59,0,19.66,13.81,43.56,30.83,53.4C182.72,314.68,191.16,314.67,196.81,310.24Z" style="opacity: 0.2; transform-origin: 168.5px 277.458px;" class="animable" id="elwfdtehpo8qm"></path></g><path d="M171,235.82c-19.16-11.06-34.68-2.1-34.68,20s15.52,49,34.68,60.07,34.68,2.09,34.68-20S190.17,246.88,171,235.82Zm0,75.64c-17-9.83-30.83-33.73-30.83-53.39S154,230.44,171,240.27s30.82,33.73,30.82,53.39S188,321.29,171,311.46Z" style="fill: #2059BD; transform-origin: 171px 275.856px;" id="elsdfc7w8qkwf" class="animable"></path><path d="M200.8,283.88c-.07-.35-.14-.69-.22-1l-26.85-7.2,24-2.14c-.12-.31-.23-.61-.36-.92l-24.24,2.16,19.73-11.39c-.15-.27-.32-.54-.48-.82l-19.73,11.39,13.93-19.81-.62-.77L172.17,273l7.12-26.59c-.26-.24-.52-.48-.79-.71l-7,26.15V240.56l-.47-.29-.48-.26v30.71l-6.89-33.67c-.34-.11-.68-.2-1-.28L169.42,270l-13.15-33.9c-.33,0-.66,0-1,.08l13.06,33.66-18.51-32c-.28.15-.56.3-.83.46l18.51,32.06L144.79,242c-.2.26-.39.53-.58.8l22.91,28.5-25.63-22.73c-.1.33-.2.67-.29,1l26,23.06-27-15.58c0,.33,0,.65,0,1v.09L167.66,274l-26.61-7.13c.06.34.13.69.2,1l27.06,7.25L144,277.35c.11.31.23.61.35.92l24.59-2.2L148.8,287.69l.46.83,20.13-11.63-14.26,20.3.61.77,14.13-20.09-7.33,27.33.8.71,7.2-26.9v32.16l.48.29.47.26V280.09l7.09,34.65,1,.27-7-34.19,13.5,34.79c.33,0,.66-.05,1-.09L173.69,281l18.91,32.75c.27-.15.54-.32.81-.49l-18.9-32.73,23.09,28.72c.19-.26.38-.53.56-.81L174.91,279.5l25.84,22.91c.1-.34.18-.68.26-1l-26.17-23.21,27,15.59v-.09c0-.33,0-.67,0-1L174.38,276.8Z" style="fill: rgb(235, 235, 235); transform-origin: 171.02px 275.855px;" id="elyzel2p1rw7" class="animable"></path><path d="M172.8,261.51c-3.28-1.9-6.23-2-8.34-.7-.43.28-1,.52-1.52.85-.16.09-.3.19-.45.29l-.08.05,0,0a6.47,6.47,0,0,0-.57.47l-.12.12c-.16.16-.31.32-.46.5l-.15.21a4.93,4.93,0,0,0-.36.53l-.17.31c-.09.18-.18.35-.26.54a2.75,2.75,0,0,0-.17.43c-.07.17-.13.34-.19.53s-.1.37-.14.57-.09.32-.12.5-.08.5-.11.75l-.06.43c0,.41-.06.84-.06,1.28,0,7.37,5.18,16.34,11.57,20,.4.23.79.43,1.18.61a6.55,6.55,0,0,0,.69.27,4.62,4.62,0,0,0,.47.19,4.12,4.12,0,0,0,.47.13,5.78,5.78,0,0,0,.65.18l.26,0a8.3,8.3,0,0,0,.83.12h.05a6,6,0,0,0,3.77-.88c.56-.33,1.06-.57,1.69-.95,2-1.22,3.29-3.78,3.29-7.4C184.37,274.16,179.19,265.2,172.8,261.51Zm-3.3,22.21c-2-1.54-4.76-6.22-5.85-8.83a22,22,0,0,0,2,1.24c3,1.55,2.93-.55,4.15.91s1,5,0,6.9A1.74,1.74,0,0,1,169.5,283.72ZM175.36,270a2.78,2.78,0,0,0-.49.22c-.32.18-1.63.92-1.77,1a2.21,2.21,0,0,0-.89.88c-1.49-1.52-3.21-6.36-3.08-8.64,2.59.89,6.9,4.48,7.56,5.87a1.5,1.5,0,0,1,.12.33A7.5,7.5,0,0,0,175.36,270Zm-8.77-1.53c1,3.49,2.43,4,2.53,5.17-2.28-.37-6-2.58-6.22-4.77a8.75,8.75,0,0,1,2-5.87C165.86,263.45,165.8,265.64,166.59,268.5Zm6.53,18.33c-1.2-1.1.14-2.18.75-4.45a6.08,6.08,0,0,0,0-3.32c2.37,1.87,5.92,6.78,5,8.23l-.11.15C176.74,288,174,287.61,173.12,286.83Zm5.65-7.6c-2.51-3.36-3.51-2.2-4.12-4a2.31,2.31,0,0,1,.82-2.41,3,3,0,0,1,3.64,1.23c1.23,2.18,1.91,6.15,2,8.62C180.48,281.77,179.73,280.5,178.77,279.23Z" style="fill: rgb(224, 224, 224); transform-origin: 171.93px 275.32px;" id="elxegatxuy01l" class="animable"></path><g id="elytlkeclapnc"><path d="M172.8,261.51c-3.28-1.9-6.23-2-8.34-.7-.43.28-1,.52-1.52.85-.16.09-.3.19-.45.29l-.08.05,0,0a6.47,6.47,0,0,0-.57.47l-.12.12c-.16.16-.31.32-.46.5l-.15.21a4.93,4.93,0,0,0-.36.53l-.17.31c-.09.18-.18.35-.26.54a2.75,2.75,0,0,0-.17.43c-.07.17-.13.34-.19.53s-.1.37-.14.57-.09.32-.12.5-.08.5-.11.75l-.06.43c0,.41-.06.84-.06,1.28,0,7.37,5.18,16.34,11.57,20,.4.23.79.43,1.18.61a6.55,6.55,0,0,0,.69.27,4.62,4.62,0,0,0,.47.19,4.12,4.12,0,0,0,.47.13,5.78,5.78,0,0,0,.65.18l.26,0a8.3,8.3,0,0,0,.83.12h.05a6,6,0,0,0,3.77-.88c.56-.33,1.06-.57,1.69-.95,2-1.22,3.29-3.78,3.29-7.4C184.37,274.16,179.19,265.2,172.8,261.51Zm-3.3,22.21c-2-1.54-4.76-6.22-5.85-8.83a22,22,0,0,0,2,1.24c3,1.55,2.93-.55,4.15.91s1,5,0,6.9A1.74,1.74,0,0,1,169.5,283.72ZM175.36,270a2.78,2.78,0,0,0-.49.22c-.32.18-1.63.92-1.77,1a2.21,2.21,0,0,0-.89.88c-1.49-1.52-3.21-6.36-3.08-8.64,2.59.89,6.9,4.48,7.56,5.87a1.5,1.5,0,0,1,.12.33A7.5,7.5,0,0,0,175.36,270Zm-8.77-1.53c1,3.49,2.43,4,2.53,5.17-2.28-.37-6-2.58-6.22-4.77a8.75,8.75,0,0,1,2-5.87C165.86,263.45,165.8,265.64,166.59,268.5Zm6.53,18.33c-1.2-1.1.14-2.18.75-4.45a6.08,6.08,0,0,0,0-3.32c2.37,1.87,5.92,6.78,5,8.23l-.11.15C176.74,288,174,287.61,173.12,286.83Zm5.65-7.6c-2.51-3.36-3.51-2.2-4.12-4a2.31,2.31,0,0,1,.82-2.41,3,3,0,0,1,3.64,1.23c1.23,2.18,1.91,6.15,2,8.62C180.48,281.77,179.73,280.5,178.77,279.23Z" style="opacity: 0.2; transform-origin: 171.93px 275.32px;" class="animable" id="elyadihad99a"></path></g><path d="M171,262.51c-6.39-3.68-11.57-.69-11.57,6.68s5.18,16.34,11.57,20,11.55.69,11.55-6.68S177.4,266.2,171,262.51Zm-2.87.79c2.29,0,7.78,4.49,8.54,6.07s-1.25,1-3.09,1.66c-2.34.83-1.23,3.09-2.61,2.52C169,272.72,165.88,263.26,168.15,263.3Zm-3.44-.35c1.18.2,1,2.5,1.88,5.55,1.07,3.86,2.75,4.11,2.51,5.55-.35,2.11-7.62-1.05-8-4.16S163.53,262.74,164.71,263Zm3,21.77c-2.5-1.94-6.29-8.91-6.32-10.37s1.9.55,4.26,1.78c3,1.55,2.93-.55,4.15.91C171.63,279.17,170.23,286.67,167.73,284.72Zm11.11,2.57c-1.19,1.9-6.28,1.64-7.49.54s.14-2.17.76-4.46c.78-2.89-.94-4.45.06-5C173.62,277.6,180,285.39,178.84,287.29ZM177,280.22c-2.51-3.35-3.51-2.2-4.11-4-.9-2.62,4.46-5.3,6.22-2.18s2.4,9.93,1.69,10.71S179,282.86,177,280.22Z" style="fill: rgb(224, 224, 224); transform-origin: 170.99px 275.846px;" id="elw589jy9xr4f" class="animable"></path><path d="M171,280c1.95,1.13,3.53.21,3.53-2a7.82,7.82,0,0,0-3.53-6.13c-2-1.13-3.54-.21-3.54,2A7.81,7.81,0,0,0,171,280Z" style="fill: rgb(69, 90, 100); transform-origin: 170.995px 275.935px;" id="el7vg4coxlogo" class="animable"></path><path d="M300,280.5a1.42,1.42,0,0,0-2-.28l-3.64,2.72-.65-2.64-60.39,45.39s-1.16.62-1.23.69l-60.13-51.61a1.42,1.42,0,1,0-1.85,2.16l62.33,53.5a3.43,3.43,0,0,0,.48.33,2.48,2.48,0,0,0,1.26.36,2.77,2.77,0,0,0,1.69-.65h0L295.05,286l4.61-3.45A1.43,1.43,0,0,0,300,280.5Z" style="fill: #2059BD; transform-origin: 234.952px 302.774px;" id="el7sqtcmur7ip" class="animable"></path><path d="M244.13,298.09a78.75,78.75,0,0,1-17.3-2l-.14,0L170.54,277.2a1.42,1.42,0,0,1,.09-2.72l50.09-13.35c.76-.21,1.49,2.55.73,2.75L175.93,276l51.59,17.33c17.12,3.86,33.51,1.81,45-5.63,9.93-6.43,16.39-16.73,19.19-30.63a1.42,1.42,0,0,1,1.68-1.11,1.41,1.41,0,0,1,1.11,1.67c-3,14.68-9.83,25.6-20.43,32.46C265.93,295.37,255.5,298.09,244.13,298.09Z" style="fill: #2059BD; transform-origin: 232.05px 277.01px;" id="el4snqeopvbmx" class="animable"></path><path d="M233.59,331a1.41,1.41,0,0,1-1.39-1.15L209,208.89a1.43,1.43,0,0,1,2.8-.54L235,329.26a1.42,1.42,0,0,1-1.13,1.67A1.23,1.23,0,0,1,233.59,331Z" style="fill: #2059BD; transform-origin: 222.009px 269.149px;" id="eln7qrd8grxra" class="animable"></path><path d="M268.39,305.59a1.43,1.43,0,0,1-1.34-.93l-4.07-11a1.43,1.43,0,0,1,.85-1.83,1.41,1.41,0,0,1,1.82.84l4.07,11a1.43,1.43,0,0,1-1.33,1.92Z" style="fill: #2059BD; transform-origin: 266.35px 298.665px;" id="elr6alge92r0a" class="animable"></path><path d="M321.28,364.31a1.42,1.42,0,0,1-1.07-.49L306.27,348a1.36,1.36,0,0,1-.3-.57l-16-60.07a1.42,1.42,0,0,1,2.75-.73l15.91,59.74,13.72,15.59a1.43,1.43,0,0,1-1.07,2.37Z" style="fill: #2059BD; transform-origin: 306.312px 324.951px;" id="el4vjen8n0jmt" class="animable"></path><path d="M292.84,284.48l-3.32-45.09c-.08-1,3.71-1.32,3.79-.28l3.32,45.09C296.7,285.25,292.92,285.48,292.84,284.48Z" style="fill: #2059BD; transform-origin: 293.075px 261.795px;" id="elzea99zft9pe" class="animable"></path><g id="elr28foou5an"><g style="opacity: 0.4; transform-origin: 246.137px 285.814px;" class="animable" id="elcz5x4hhplmb"><path d="M300,280.5a1.42,1.42,0,0,0-2-.28l-3.64,2.72-.65-2.64-60.39,45.39s-1.16.62-1.23.69l-60.13-51.61a1.42,1.42,0,1,0-1.85,2.16l62.33,53.5a3.43,3.43,0,0,0,.48.33,2.48,2.48,0,0,0,1.26.36,2.77,2.77,0,0,0,1.69-.65h0L295.05,286l4.61-3.45A1.43,1.43,0,0,0,300,280.5Z" id="elyq3ogxd3t9t" class="animable" style="transform-origin: 234.952px 302.774px;"></path><path d="M244.13,298.09a78.75,78.75,0,0,1-17.3-2l-.14,0L170.54,277.2a1.42,1.42,0,0,1,.09-2.72l50.09-13.35c.76-.21,1.49,2.55.73,2.75L175.93,276l51.59,17.33c17.12,3.86,33.51,1.81,45-5.63,9.93-6.43,16.39-16.73,19.19-30.63a1.42,1.42,0,0,1,1.68-1.11,1.41,1.41,0,0,1,1.11,1.67c-3,14.68-9.83,25.6-20.43,32.46C265.93,295.37,255.5,298.09,244.13,298.09Z" id="eli3u7r5uihf" class="animable" style="transform-origin: 232.05px 277.01px;"></path><path d="M233.59,331a1.41,1.41,0,0,1-1.39-1.15L209,208.89a1.43,1.43,0,0,1,2.8-.54L235,329.26a1.42,1.42,0,0,1-1.13,1.67A1.23,1.23,0,0,1,233.59,331Z" id="elj5xuh2eht5k" class="animable" style="transform-origin: 222.009px 269.149px;"></path><path d="M268.39,305.59a1.43,1.43,0,0,1-1.34-.93l-4.07-11a1.43,1.43,0,0,1,.85-1.83,1.41,1.41,0,0,1,1.82.84l4.07,11a1.43,1.43,0,0,1-1.33,1.92Z" id="eldhk9n294ksj" class="animable" style="transform-origin: 266.35px 298.665px;"></path><path d="M321.28,364.31a1.42,1.42,0,0,1-1.07-.49L306.27,348a1.36,1.36,0,0,1-.3-.57l-16-60.07a1.42,1.42,0,0,1,2.75-.73l15.91,59.74,13.72,15.59a1.43,1.43,0,0,1-1.07,2.37Z" id="elriosqeujwoq" class="animable" style="transform-origin: 306.312px 324.951px;"></path><path d="M292.84,284.48l-3.32-45.09c-.08-1,3.71-1.32,3.79-.28l3.32,45.09C296.7,285.25,292.92,285.48,292.84,284.48Z" id="elu5jr19ocd1o" class="animable" style="transform-origin: 293.075px 261.795px;"></path></g></g><path d="M292.15,275s.15,3.26.08,5.11-3.36,4.27-2.31,7.63,2.44,8.55,2.44,8.55a2,2,0,0,0,2.65-1.1l-1.37-5.16a3.87,3.87,0,0,1,1.42-4.11l.56-.42a2,2,0,0,1,3.12,1.07l1.49,5.59a2.08,2.08,0,0,0,2.53-1.57s-1.86-7.39-2.69-10.1c-.65-2.14-3.83-1.26-4-4.06l-.24-3.15C295.93,274.74,292.92,276.23,292.15,275Z" style="fill: rgb(55, 71, 79); transform-origin: 296.237px 284.866px;" id="el0ms0b4j5hwy" class="animable"></path><g id="elltwofvc75u"><path d="M293.31,239.11c-.08-1-3.87-.76-3.79.28l1,13.3a9.2,9.2,0,0,0,3.93,1.68Z" style="opacity: 0.15; transform-origin: 291.984px 246.421px;" class="animable" id="el4og7jfzer85"></path></g><path d="M235.66,315c-3.28-1.89-6.23-2-8.34-.69-.43.28-1,.52-1.52.85a4.3,4.3,0,0,0-.45.29l-.08.05,0,0a5.08,5.08,0,0,0-.57.47l-.12.11c-.16.16-.31.33-.46.51l-.15.21a4.93,4.93,0,0,0-.36.53l-.17.31-.27.53c-.06.14-.11.29-.16.44s-.13.34-.19.52-.1.38-.15.57-.08.33-.11.5-.08.5-.11.76-.05.28-.06.42c0,.42-.06.84-.06,1.29,0,7.37,5.18,16.33,11.57,20,.4.23.79.44,1.18.62l.69.27c.15.06.31.14.47.19l.46.13.66.18.26,0a8.3,8.3,0,0,0,.83.12h0a6,6,0,0,0,3.77-.88c.56-.33,1.06-.57,1.69-1,2-1.22,3.29-3.79,3.29-7.4C247.23,327.63,242.05,318.66,235.66,315Zm-3.3,22.22c-2-1.55-4.76-6.22-5.85-8.83a22,22,0,0,0,2,1.23c3,1.56,2.93-.55,4.15.91s1,5.05,0,6.9A1.47,1.47,0,0,1,232.36,337.19Zm5.86-13.7a2.78,2.78,0,0,0-.49.23l-1.77,1a2.23,2.23,0,0,0-.89.89c-1.49-1.52-3.22-6.36-3.08-8.64,2.59.88,6.9,4.48,7.56,5.87a1.34,1.34,0,0,1,.12.33A7.29,7.29,0,0,0,238.22,323.49ZM229.45,322c1,3.49,2.43,4,2.52,5.16-2.27-.36-6-2.57-6.21-4.77a8.74,8.74,0,0,1,2-5.86C228.72,316.92,228.65,319.11,229.45,322ZM236,340.29c-1.2-1.1.14-2.17.75-4.45a6.14,6.14,0,0,0,0-3.31c2.37,1.87,5.92,6.77,5,8.23a1.34,1.34,0,0,1-.11.14C239.6,341.42,236.83,341.07,236,340.29Zm5.65-7.6c-2.52-3.35-3.51-2.2-4.12-4a2.31,2.31,0,0,1,.82-2.41,3,3,0,0,1,3.64,1.22c1.23,2.18,1.91,6.16,2,8.62C243.33,335.24,242.59,334,241.63,332.69Z" style="fill: rgb(224, 224, 224); transform-origin: 234.765px 328.823px;" id="el4rf3bf6m2vx" class="animable"></path><g id="elavus6g2t31k"><path d="M235.66,315c-3.28-1.89-6.23-2-8.34-.69-.43.28-1,.52-1.52.85a4.3,4.3,0,0,0-.45.29l-.08.05,0,0a5.08,5.08,0,0,0-.57.47l-.12.11c-.16.16-.31.33-.46.51l-.15.21a4.93,4.93,0,0,0-.36.53l-.17.31-.27.53c-.06.14-.11.29-.16.44s-.13.34-.19.52-.1.38-.15.57-.08.33-.11.5-.08.5-.11.76-.05.28-.06.42c0,.42-.06.84-.06,1.29,0,7.37,5.18,16.33,11.57,20,.4.23.79.44,1.18.62l.69.27c.15.06.31.14.47.19l.46.13.66.18.26,0a8.3,8.3,0,0,0,.83.12h0a6,6,0,0,0,3.77-.88c.56-.33,1.06-.57,1.69-1,2-1.22,3.29-3.79,3.29-7.4C247.23,327.63,242.05,318.66,235.66,315Zm-3.3,22.22c-2-1.55-4.76-6.22-5.85-8.83a22,22,0,0,0,2,1.23c3,1.56,2.93-.55,4.15.91s1,5.05,0,6.9A1.47,1.47,0,0,1,232.36,337.19Zm5.86-13.7a2.78,2.78,0,0,0-.49.23l-1.77,1a2.23,2.23,0,0,0-.89.89c-1.49-1.52-3.22-6.36-3.08-8.64,2.59.88,6.9,4.48,7.56,5.87a1.34,1.34,0,0,1,.12.33A7.29,7.29,0,0,0,238.22,323.49ZM229.45,322c1,3.49,2.43,4,2.52,5.16-2.27-.36-6-2.57-6.21-4.77a8.74,8.74,0,0,1,2-5.86C228.72,316.92,228.65,319.11,229.45,322ZM236,340.29c-1.2-1.1.14-2.17.75-4.45a6.14,6.14,0,0,0,0-3.31c2.37,1.87,5.92,6.77,5,8.23a1.34,1.34,0,0,1-.11.14C239.6,341.42,236.83,341.07,236,340.29Zm5.65-7.6c-2.52-3.35-3.51-2.2-4.12-4a2.31,2.31,0,0,1,.82-2.41,3,3,0,0,1,3.64,1.22c1.23,2.18,1.91,6.16,2,8.62C243.33,335.24,242.59,334,241.63,332.69Z" style="opacity: 0.2; transform-origin: 234.765px 328.823px;" class="animable" id="elvve5whdly7r"></path></g><path d="M233.88,316c-6.39-3.68-11.57-.69-11.57,6.68s5.18,16.33,11.57,20,11.55.7,11.55-6.67S240.26,319.67,233.88,316Zm-2.87.79c2.29,0,7.78,4.48,8.54,6.07s-1.25,1-3.09,1.66c-2.35.82-1.24,3.09-2.61,2.52C231.84,326.19,228.74,316.73,231,316.77Zm-3.44-.35c1.18.2,1,2.5,1.88,5.55,1.07,3.86,2.75,4.1,2.51,5.54-.35,2.12-7.63-1-8-4.15S226.39,316.21,227.57,316.42Zm3,21.77c-2.5-1.95-6.29-8.91-6.32-10.37s1.9.55,4.26,1.77c3,1.56,2.93-.55,4.15.91C234.49,332.64,233.09,340.14,230.59,338.19Zm11.11,2.57c-1.19,1.9-6.29,1.64-7.49.54s.14-2.17.76-4.46c.78-2.89-.94-4.45.06-5C236.48,331.06,242.9,338.86,241.7,340.76Zm-1.84-7.07c-2.51-3.35-3.51-2.2-4.11-4-.9-2.62,4.46-5.31,6.22-2.19s2.4,9.94,1.69,10.71S241.85,336.33,239.86,333.69Z" style="fill: rgb(224, 224, 224); transform-origin: 233.87px 329.339px;" id="ellwev8lafue" class="animable"></path><path d="M233.88,333.42c2,1.12,3.53.21,3.53-2.05a7.82,7.82,0,0,0-3.53-6.12c-2-1.13-3.54-.21-3.54,2A7.81,7.81,0,0,0,233.88,333.42Z" style="fill: rgb(69, 90, 100); transform-origin: 233.875px 329.332px;" id="el4q7jlcybxga" class="animable"></path><path d="M222.2,348a.9.9,0,0,1-.42-.1.94.94,0,0,1-.43-1.27l7.81-15.83,4.11-2.37a.95.95,0,0,1,.94,1.65l-3.6,2.08-7.56,15.31A.94.94,0,0,1,222.2,348Z" style="fill: rgb(38, 50, 56); transform-origin: 227.956px 338.16px;" id="elxjirc0v4nd" class="animable"></path><path d="M229.12,350.86l-9.8-5.66a1.78,1.78,0,0,0-1.76,0l-13.65,7.89a1.74,1.74,0,0,0-.88,1.52v.88a1.76,1.76,0,0,0,.88,1.52l9.82,5.67a1.78,1.78,0,0,0,1.76,0l13.64-7.9a1.75,1.75,0,0,0,.87-1.52v-.87A1.76,1.76,0,0,0,229.12,350.86Z" style="fill: #2059BD; transform-origin: 216.515px 353.94px;" id="ely7gubgza1bg" class="animable"></path><g id="elkqrih72dgj"><path d="M229.12,350.86l-9.8-5.66a1.78,1.78,0,0,0-1.76,0l-13.65,7.89a1.74,1.74,0,0,0-.88,1.52v.88a1.76,1.76,0,0,0,.88,1.52l9.82,5.67a1.78,1.78,0,0,0,1.76,0l13.64-7.9a1.75,1.75,0,0,0,.87-1.52v-.87A1.76,1.76,0,0,0,229.12,350.86Z" style="opacity: 0.2; transform-origin: 216.515px 353.94px;" class="animable" id="elriau5ge8ysp"></path></g><path d="M213.79,359.81a1.65,1.65,0,0,0,1.64,0l14.34-8.3a1.69,1.69,0,0,0-.65-.65l-2.73-1.58-7.07-4.08a1.78,1.78,0,0,0-1.76,0l-1.65,1-12,6.93a1.9,1.9,0,0,0-.65.64Z" style="fill: #2059BD; transform-origin: 216.515px 352.498px;" id="eluxg5pf14xy" class="animable"></path><path d="M251.92,230.6c-2.87-4.66-9.61-11.46-9.61-11.46s-17.37-23.38-36.63-12.26a12.82,12.82,0,0,0-6.69,9.49,15.91,15.91,0,0,0-.14,4.18,10,10,0,0,0,2.38,5.86c2.54,3.51,9.71,6.39,18.31,8.56.61.16,1.23.3,1.85.45,3.07.7,6.16,1.3,9.24,1.92s6.12,1.25,9.14,2c1.23.33,2.46.69,3.66,1.14.49.18,1,.38,1.46.6a4.62,4.62,0,0,0,1.86.8,8.17,8.17,0,0,0,2.51-.44,4.52,4.52,0,0,0,1-.55,7.11,7.11,0,0,0,2.35-3.35A8.25,8.25,0,0,0,251.92,230.6Z" style="fill: rgb(154, 74, 77); transform-origin: 225.924px 222.88px;" id="el5lr0lapwhh2" class="animable"></path><path d="M205.68,206.88c-5.84,3.37-9,9.58-4.45,15.92,2.54,3.5,9.71,6.38,18.31,8.56s23.28,4.13,26.91,7.09,8.83-2.36,5.47-7.85c-2.87-4.66-9.61-11.46-9.61-11.46S224.94,195.76,205.68,206.88Z" style="fill: rgb(177, 102, 104); transform-origin: 226.033px 221.589px;" id="elfpjuliswjmj" class="animable"></path><polygon points="211.97 338.08 222.92 339.39 227.41 319.8 214.06 320.64 211.97 338.08" style="fill: rgb(255, 168, 167); transform-origin: 219.69px 329.595px;" id="elzfst0iinx3s" class="animable"></polygon><path d="M236.77,362a3.44,3.44,0,0,1-.47,2.37c-.52.62-1.63,1.82-5.66,2a17.07,17.07,0,0,1-8.84-1.75c-2.67-1.38-5-3-5.82-5.95-.66-2.38-1.13-5.34-3.23-7.19s-3.4-2.19-4-4c-.66-2.12.67-6.8.67-6.8Z" style="fill: rgb(55, 71, 79); transform-origin: 222.691px 353.547px;" id="elm2bbommytd9" class="animable"></path><path d="M224.59,338.62a9.6,9.6,0,0,0,.17,2.78,22.27,22.27,0,0,0,3.94,7.91,16.3,16.3,0,0,0,1.9,2.24c1.44,1.35,3.32,2.18,4.66,3.63a7.11,7.11,0,0,1,1.84,5.32,4,4,0,0,1-1.36,2.89,4.65,4.65,0,0,1-1.68.72A16.29,16.29,0,0,1,222,362.32a10.67,10.67,0,0,1-4.35-4.2c-1-2-2-5.48-3.2-7.35-1-1.52-2.59-2.53-3.84-3.86-2.73-2.92-1.42-7.08-.09-10.38.7-1.73,1.49-3.69,2.1-3.45-.1.93-.12,1,.47,1.74.74.89.64,2.09,1.44,2.91a13.84,13.84,0,0,1-.34-2.47,1.39,1.39,0,0,1,.31-.93,2.59,2.59,0,0,1,1.1-.43,21,21,0,0,1,4.19-.44,12.43,12.43,0,0,1,4,.45,1.69,1.69,0,0,1,.93.7,2,2,0,0,1,.22,1.19C224.88,336.35,224.67,337.73,224.59,338.62Z" style="fill: rgb(69, 90, 100); transform-origin: 223.065px 348.811px;" id="el88zse8bgjxj" class="animable"></path><path d="M227.79,348c-1.25-1-4.08-1-5.62-.85a9.26,9.26,0,0,0-4.41,1.49,1,1,0,0,1-1.29-.12h0a.94.94,0,0,1,.11-1.44,9.51,9.51,0,0,1,5-1.77c3.81-.23,4.91.44,4.91.44S228.18,346.88,227.79,348Z" style="fill: rgb(245, 245, 245); transform-origin: 222.017px 347.042px;" id="elrbbimi5xx28" class="animable"></path><path d="M231.11,352c-1.61-.9-4.71-.69-6.25-.48a8.71,8.71,0,0,0-4.23,1.73,1,1,0,0,1-1.3-.07h0a1,1,0,0,1,.06-1.45,10,10,0,0,1,5-2.1c3.79-.36,4.8.39,4.8.39A3.15,3.15,0,0,1,231.11,352Z" style="fill: rgb(245, 245, 245); transform-origin: 225.079px 351.495px;" id="eln0jysjusemg" class="animable"></path><path d="M220.36,341a9.48,9.48,0,0,1,4.7,1c.62.45.93,1.55.47,1.77a8.71,8.71,0,0,0-4.13-1.08,12.44,12.44,0,0,0-4.22.63c-.34.11-.75.26-1.1.41a.91.91,0,0,1-1.2-.54h0a.83.83,0,0,1,.46-1A12.26,12.26,0,0,1,220.36,341Z" style="fill: rgb(245, 245, 245); transform-origin: 220.297px 342.393px;" id="el7ncjyc3d4yr" class="animable"></path><path d="M263,197.31l-51.81.41a52.56,52.56,0,0,0,0,31.14C215.94,244,225.72,271,225.72,271a58.42,58.42,0,0,0-8.48,18.25c-2.77,10.6-4.54,38.61-4.54,38.61s7.35,4.72,12.57,2.43c0,0,16.25-40.71,20.83-54.39s-.42-54.26-.42-54.26S260,207.84,263,197.31Z" style="fill: rgb(55, 71, 79); transform-origin: 235.915px 264.113px;" id="elcwbta6o8qr6" class="animable"></path><path d="M233.36,249.79c1.22,2.64,4.95,8.92,7,10.72,3.51,3.11,6.47,2,6.47,2l-1-7-6.07-6.64Z" style="fill: rgb(242, 143, 143); transform-origin: 240.095px 255.786px;" id="elqnnbi99liu" class="animable"></path><path d="M263.47,128.83c6.82.7,11.08,6.5,16,17s17.17,34.61,17.17,34.61l32.35,22,1.44,11.35-2,2-6-3L290,195.56a21.36,21.36,0,0,1-7.3-6.47c-3.77-6.16-18.56-34.71-18.56-34.71Z" style="fill: rgb(255, 168, 167); transform-origin: 296.95px 172.31px;" id="el1q9g6zhf91c" class="animable"></path><path d="M263.47,128.83s2.27-.72,6.14,2,6.28,6.91,10.82,16,9.09,18.38,9.09,18.38-4,8.23-15.42,10l-10.83-18.44Z" style="fill: #2059BD; transform-origin: 276.395px 151.977px;" id="elrjl9bpfv1x" class="animable"></path><g id="elqu5h522oweo"><path d="M263.47,128.83s2.27-.72,6.14,2,6.28,6.91,10.82,16,9.09,18.38,9.09,18.38-4,8.23-15.42,10l-10.83-18.44Z" style="opacity: 0.3; transform-origin: 276.395px 151.977px;" class="animable" id="elaabbdowcitt"></path></g><path d="M332.05,217.65l-3-5.22,12.78-7.37h0a1.49,1.49,0,0,1,1.53.13,4.74,4.74,0,0,1,2.13,3.7,1.5,1.5,0,0,1-.6,1.35h0Z" style="fill: rgb(69, 90, 100); transform-origin: 337.273px 211.279px;" id="elrmyfi1addps" class="animable"></path><path d="M332.67,216.27c0,1.36-1,1.91-2.14,1.23a4.73,4.73,0,0,1-2.13-3.69c0-1.36,1-1.91,2.13-1.23A4.71,4.71,0,0,1,332.67,216.27Z" style="fill: rgb(55, 71, 79); transform-origin: 330.535px 215.04px;" id="elfpqkde6uioo" class="animable"></path><path d="M324.63,199.48c3.22,1.29,13.76,1.54,16.84,3.91s4.13,8.5,2.62,11.09-7.31,5.38-9.64,4.77-2.39-1.63-2.39-1.63l1.82-1s1.28-5.75-2.4-5.57L329,212.42l-2.77-3.76Z" style="fill: rgb(255, 168, 167); transform-origin: 334.701px 209.407px;" id="elgf2gr82iar8" class="animable"></path><path d="M331.45,215.55a.9.9,0,0,1-.16.55l-.33.18-16.68,9.63a6.31,6.31,0,0,0-3.14,5.45,9.15,9.15,0,0,1-4.57,7.9L295,245.94l-1.42-2.47,11.56-6.68a6.27,6.27,0,0,0,3.14-5.43,9.18,9.18,0,0,1,4.56-7.91l16.77-9.67.17-.1a.75.75,0,0,1,.63.1A2.29,2.29,0,0,1,331.45,215.55Z" style="fill: rgb(224, 224, 224); transform-origin: 312.515px 229.795px;" id="elnzh43sd4u2g" class="animable"></path><g id="freepik--Boy--inject-3" class="animable" style="transform-origin: 247.986px 140.615px;"><path d="M223.53,144.64c-5.35,15.82-12.34,53.08-12.34,53.08,6.47,8.61,37.48,15.23,51.81-.41a285.26,285.26,0,0,0,9.73-43.82c1.53-11.05,1.3-20-8.11-24.51l-16-2.15-13.29,1.36C228.64,131.2,225.54,138.68,223.53,144.64Z" style="fill: rgb(240, 240, 240); transform-origin: 242.314px 166.791px;" id="elukt93ejyq5" class="animable"></path><g id="eli6jhcmvwp0o"><path d="M211.91,198.56c6.93,7.28,31,12.58,46,3a19.8,19.8,0,0,1-18.09-.24c-4.65-2.53-7.78-15.47-7.78-15.47l6.05-35.9-18.52,8.67c-4.31,17.33-8.4,39.12-8.4,39.12.2.26.43.53.67.79A.12.12,0,0,1,211.91,198.56Z" style="opacity: 0.1; transform-origin: 234.54px 178.347px;" class="animable" id="elqq6qwbm721f"></path></g><g id="elgznpay7zv6l"><circle cx="267.58" cy="92.24" r="15.47" style="fill: rgb(38, 50, 56); transform-origin: 267.58px 92.24px; transform: rotate(-83.08deg);" class="animable" id="elo5k5xlleep"></circle></g><path d="M240.44,102.21s2.05,11.87,3,13.84a5.32,5.32,0,0,0,3,2.6l.14-8.28Z" style="fill: rgb(38, 50, 56); transform-origin: 243.51px 110.43px;" id="elg7b85gpvbm5" class="animable"></path><path d="M244.22,85.47A5.8,5.8,0,0,0,239.36,87c-2.15,2-1.24,8.67,1.08,15.23l4.7.73Z" style="fill: rgb(38, 50, 56); transform-origin: 241.641px 94.1825px;" id="elqikwa3pwudg" class="animable"></path><path d="M246.55,103c-1,.53-2.25-1.34-3.37-2.6s-4.86-3.08-6.92.85,1.32,9.54,4.28,10.59c5.11,1.82,6-1.46,6-1.46L246.24,129c4.26,5.14,20.44,9.59,16.83.14l.2-5.67a59.81,59.81,0,0,0,7,.62c2.63-.05,5.56-1.89,7.31-7.7,2.18-7.27,2.39-16.61,1.29-26C277.34,77.62,262.06,76.7,252.89,82S246.55,103,246.55,103Z" style="fill: rgb(255, 168, 167); transform-origin: 257.574px 106.814px;" id="el5wpq3z3c7bb" class="animable"></path><path d="M246.49,104.59c-.42-.23-2.17-3.09-3.31-4.2-1.57-1.55,1-14.92,1-14.92s-1.44-3.4,1.84-6.74a13.48,13.48,0,0,1,13-3.87c4.65,1,9.4,2.28,14.12,1.19a53.68,53.68,0,0,1,7.05-1.52.81.81,0,0,1,1.06,1,7.29,7.29,0,0,1-1.53,4.3l2.95-.76a.8.8,0,0,1,.61,0,.73.73,0,0,1,.25.6,7,7,0,0,1-2.25,5.64c-3.24,2.94-6.72,3.83-11,4a52,52,0,0,1-16.89-1.67c-1.75-.3-2.19,1.38-3.31,6C249,97.73,250.18,106.52,246.49,104.59Z" style="fill: rgb(38, 50, 56); transform-origin: 263.109px 89.6702px;" id="elk8o6xusdu38" class="animable"></path><path d="M244.19,86.52l-5.6-3.29A3.15,3.15,0,0,1,243,82,3.41,3.41,0,0,1,244.19,86.52Z" style="fill: rgb(38, 50, 56); transform-origin: 241.597px 84.0346px;" id="eloivrqrjivtl" class="animable"></path><path d="M263.27,123.5s-8.42-2-11.32-3.72a9.8,9.8,0,0,1-3.95-4.22,13.39,13.39,0,0,0,2.15,4.88c2.06,2.85,13,5.32,13,5.32Z" style="fill: rgb(242, 143, 143); transform-origin: 255.635px 120.66px;" id="el2pr64p622of" class="animable"></path><path d="M263.07,101.55a1.7,1.7,0,1,1-1.63-1.84A1.73,1.73,0,0,1,263.07,101.55Z" style="fill: rgb(38, 50, 56); transform-origin: 261.375px 101.409px;" id="eldm6ywipzm6n" class="animable"></path><path d="M261.57,95.24l-3.71,1.86a2.17,2.17,0,0,1,1-2.86A2,2,0,0,1,261.57,95.24Z" style="fill: rgb(38, 50, 56); transform-origin: 259.613px 95.569px;" id="el1eekrv1kisu" class="animable"></path><path d="M262,113.26l3.83,1.61a2,2,0,0,1-2.69,1.18A2.18,2.18,0,0,1,262,113.26Z" style="fill: rgb(242, 143, 143); transform-origin: 263.839px 114.738px;" id="el4b603s3u41v" class="animable"></path><path d="M278.63,97.6,275,95.46a2,2,0,0,1,2.82-.79A2.22,2.22,0,0,1,278.63,97.6Z" style="fill: rgb(38, 50, 56); transform-origin: 276.943px 95.9884px;" id="elr460uydu5e" class="animable"></path><path d="M277,101.89a1.7,1.7,0,1,1-1.63-1.83A1.73,1.73,0,0,1,277,101.89Z" style="fill: rgb(38, 50, 56); transform-origin: 275.304px 101.759px;" id="ellg5ixmme3is" class="animable"></path><polygon points="267.81 99.79 267.58 109.95 272.73 109.59 267.81 99.79" style="fill: rgb(242, 143, 143); transform-origin: 270.155px 104.87px;" id="ello0hbi0t93h" class="animable"></polygon></g><path d="M303.53,242.48a3,3,0,0,0-1.77-2.37l-7.46-4.3-7.7,4.44v4.45l7.46,4.31a8.8,8.8,0,0,0,8,.14,2.54,2.54,0,0,0,1.51-2.22S303.56,243.3,303.53,242.48Z" style="fill: rgb(55, 71, 79); transform-origin: 295.085px 242.927px;" id="ellwdo478nbxb" class="animable"></path><path d="M294.3,235.81l7.46,4.3c2.26,1.31,2.38,3.37.25,4.59a8.8,8.8,0,0,1-8-.14l-7.45-4.31Z" style="fill: rgb(69, 90, 100); transform-origin: 295.047px 240.702px;" id="el3hxfhrd2lac" class="animable"></path><path d="M293.22,246.51a.84.84,0,0,1-.2.58l-.21.12h0l-9.32,5.39c-1.95,1.13-3.3.81-4.08.36s-1.91-1.69-1.91-4.51c0-1.44-.35-2-.49-2s-.55,0-1.24.36l-27,15.58-1.42-2.47,27-15.57c1.95-1.12,3.29-.82,4.08-.36s1.92,1.69,1.92,4.5c0,1.45.35,2,.48,2s.55,0,1.23-.37l9.39-5.42h0l.13-.07a.7.7,0,0,1,.64.09A2.26,2.26,0,0,1,293.22,246.51Z" style="fill: rgb(224, 224, 224); transform-origin: 270.285px 252.984px;" id="elwxt8m8i7ls" class="animable"></path><path d="M246.21,265.72l-3-5.22L256,253.13h0a1.49,1.49,0,0,1,1.53.14,4.7,4.7,0,0,1,2.13,3.69,1.53,1.53,0,0,1-.59,1.36h0l0,0h0Z" style="fill: rgb(69, 90, 100); transform-origin: 251.439px 259.351px;" id="elr0g7aptfw7" class="animable"></path><path d="M246.83,264.34c0,1.36-1,1.91-2.13,1.23a4.7,4.7,0,0,1-2.13-3.69c0-1.36,1-1.91,2.13-1.23A4.7,4.7,0,0,1,246.83,264.34Z" style="fill: rgb(38, 50, 56); transform-origin: 244.7px 263.11px;" id="elc8vw5iou36a" class="animable"></path><path d="M243.19,239.25c-1.65-7.17-7.93-35.58-8.62-41.26-.38-3.12,3.7-35.89,5.78-49s1-21.46-5-20.85-11.15,5.13-13.33,18.63-6.18,48.94-4.75,56.2c1.13,5.69,12.83,43.18,17.79,49.51C239.33,258,243.19,239.25,243.19,239.25Z" style="fill: rgb(255, 168, 167); transform-origin: 230.079px 190.803px;" id="elrwoftxcjaq" class="animable"></path><path d="M243.19,239.25c2.2,3.19,10.61,8.88,13.7,11.25s4.2,8.93,2.68,11.53-8.23,5.7-10.56,5.09-2.39-1.62-2.39-1.62l1.83-1c1.23-.76.74-5.11-2.41-5.57l-3.08,1.8c-1.55-.23-4.76-3.39-5.75-6.32Z" style="fill: rgb(255, 168, 167); transform-origin: 248.728px 253.224px;" id="elkdztavumvip" class="animable"></path><path d="M238.37,127.87s-8.46-2.41-13.43,6.83-7.14,38.1-7.14,38.1,2.41,2.41,10.28,3.35,10.51-1.62,10.51-1.62,4.31-30.24,4.09-36.61S240.24,129,238.37,127.87Z" style="fill: #2059BD; transform-origin: 230.244px 151.972px;" id="elfwlumkb14w6" class="animable"></path><g id="elvyrhi7hc4hr"><path d="M238.37,127.87s-8.46-2.41-13.43,6.83-7.14,38.1-7.14,38.1,2.41,2.41,10.28,3.35,10.51-1.62,10.51-1.62,4.31-30.24,4.09-36.61S240.24,129,238.37,127.87Z" style="opacity: 0.2; transform-origin: 230.244px 151.972px;" class="animable" id="elzr1u3pxvow"></path></g></g></g><defs>     <filter id="active" height="200%">         <feMorphology in="SourceAlpha" result="DILATED" operator="dilate" radius="2"></feMorphology>                <feFlood flood-color="#32DFEC" flood-opacity="1" result="PINK"></feFlood>        <feComposite in="PINK" in2="DILATED" operator="in" result="OUTLINE"></feComposite>        <feMerge>            <feMergeNode in="OUTLINE"></feMergeNode>            <feMergeNode in="SourceGraphic"></feMergeNode>        </feMerge>    </filter>    <filter id="hover" height="200%">        <feMorphology in="SourceAlpha" result="DILATED" operator="dilate" radius="2"></feMorphology>                <feFlood flood-color="#ff0000" flood-opacity="0.5" result="PINK"></feFlood>        <feComposite in="PINK" in2="DILATED" operator="in" result="OUTLINE"></feComposite>        <feMerge>            <feMergeNode in="OUTLINE"></feMergeNode>            <feMergeNode in="SourceGraphic"></feMergeNode>        </feMerge>            <feColorMatrix type="matrix" values="0   0   0   0   0                0   1   0   0   0                0   0   0   0   0                0   0   0   1   0 "></feColorMatrix>    </filter></defs></svg>